<?xml version="1.0" encoding="UTF-8" standalone="no"?>
<!-- Created with Inkscape (http://www.inkscape.org/) -->

<svg
   width="72.008919mm"
   height="15.601749mm"
   viewBox="0 0 72.008919 15.601749"
   version="1.1"
   id="svg4161"
   inkscape:version="1.1 (c68e22c387, 2021-05-23)"
   sodipodi:docname="6.svg"
   xmlns:inkscape="http://www.inkscape.org/namespaces/inkscape"
   xmlns:sodipodi="http://sodipodi.sourceforge.net/DTD/sodipodi-0.dtd"
   xmlns="http://www.w3.org/2000/svg"
   xmlns:svg="http://www.w3.org/2000/svg">
  <sodipodi:namedview
     id="namedview4163"
     pagecolor="#ffffff"
     bordercolor="#666666"
     borderopacity="1.0"
     inkscape:pageshadow="2"
     inkscape:pageopacity="0.0"
     inkscape:pagecheckerboard="0"
     inkscape:document-units="mm"
     showgrid="false"
     fit-margin-top="0"
     fit-margin-left="0"
     fit-margin-right="0"
     fit-margin-bottom="0"
     inkscape:zoom="2.8934904"
     inkscape:cx="154.6575"
     inkscape:cy="15.033746"
     inkscape:window-width="1920"
     inkscape:window-height="1001"
     inkscape:window-x="-9"
     inkscape:window-y="-9"
     inkscape:window-maximized="1"
     inkscape:current-layer="layer1" />
  <defs
     id="defs4158" />
  <g
     inkscape:label="Layer 1"
     inkscape:groupmode="layer"
     id="layer1"
     transform="translate(-78.646001,-186.52391)">
    <path
       style="fill:none;stroke:#000000;stroke-width:0.264583px;stroke-linecap:butt;stroke-linejoin:miter;stroke-opacity:1"
       d="m 78.646043,190.76535 71.878877,-0.0229"
       id="path4954"
       sodipodi:nodetypes="cc" />
    <path
       style="fill:none;stroke:#000000;stroke-width:0.264583px;stroke-linecap:butt;stroke-linejoin:miter;stroke-opacity:1"
       d="m 115.60934,190.74249 10.34536,11.25057 24.69953,-0.12932"
       id="path4960" />
    <text
       xml:space="preserve"
       style="font-size:1.41111px;line-height:1.25;font-family:sans-serif;stroke-width:0.264583"
       x="40.476204"
       y="207.42436"
       id="text14098"><tspan
         sodipodi:role="line"
         id="tspan14096"
         style="stroke-width:0.264583"
         x="40.476204"
         y="207.42436" /></text>
    <path
       style="fill:#c90000;fill-opacity:0.677618;stroke:#000000;stroke-width:0.0445805;stroke-miterlimit:4;stroke-dasharray:none;stroke-dashoffset:0"
       d="m 135.27748,199.88057 v -2.01708 l 2.86088,0.003 c 3.51842,0.003 5.99731,0.0681 6.74556,0.17708 2.35497,0.34309 4.00566,1.18181 4.88658,2.48288 0.24116,0.35618 0.54814,1.06985 0.54814,1.27433 0,0.0951 -0.17958,0.0975 -7.52058,0.0975 h -7.52058 z"
       id="path3375" />
    <path
       style="fill:#0000ad;fill-opacity:0.677618;stroke:#000000;stroke-width:0.0445805;stroke-miterlimit:4;stroke-dasharray:none;stroke-dashoffset:0"
       d="m 93.254369,188.5633 v -2.01708 l 2.86088,0.003 c 3.51841,0.003 5.997311,0.0681 6.745561,0.17708 2.35497,0.34309 4.00566,1.18181 4.88658,2.48288 0.24116,0.35618 0.54814,1.06985 0.54814,1.27433 0,0.0951 -0.17958,0.0975 -7.52058,0.0975 h -7.520581 z"
       id="path3375-7-0" />
    <path
       style="fill:none;stroke:#000000;stroke-width:0.264583px;stroke-linecap:butt;stroke-linejoin:miter;stroke-opacity:1"
       d="m 108.7838,190.70016 -0.0457,-2.46891 h 2.37746"
       id="path34728" />
    <ellipse
       style="fill:#feff00;fill-opacity:1;stroke:#000000;stroke-width:0.161798;stroke-opacity:1"
       id="path34832"
       cx="113.24726"
       cy="188.24266"
       rx="2.1074567"
       ry="1.1873325" />
    <path
       style="fill:none;stroke:#000000;stroke-width:0.264583px;stroke-linecap:butt;stroke-linejoin:miter;stroke-opacity:1"
       d="m 127.41775,201.99306 -0.0457,-2.46891 h 2.37746"
       id="path34728-8" />
    <ellipse
       style="fill:#fe0000;fill-opacity:1;stroke:#000000;stroke-width:0.161798"
       id="path34832-1"
       cx="131.88121"
       cy="199.53554"
       rx="2.1074567"
       ry="1.1873325" />
    <path
       style="fill:none;stroke:#000000;stroke-width:0.264583px;stroke-linecap:butt;stroke-linejoin:miter;stroke-opacity:1"
       d="m 127.41775,190.74583 -0.0457,-2.46891 h 2.37746"
       id="path34728-8-0" />
    <ellipse
       style="fill:#00ff00;fill-opacity:1;stroke:#000000;stroke-width:0.161798"
       id="path34832-1-3"
       cx="131.88121"
       cy="188.28831"
       rx="2.1074567"
       ry="1.1873325" />
    <path
       style="fill:none;stroke:#000000;stroke-width:0.264583px;stroke-linecap:butt;stroke-linejoin:miter;stroke-opacity:1"
       d="m 112.08981,189.23998 c 2.14181,-2.02866 2.14181,-2.02866 2.14181,-2.02866"
       id="path1980" />
    <path
       style="fill:#00ff00;fill-opacity:1;stroke:#000000;stroke-width:0.00242851;stroke-opacity:1"
       d="m 111.95038,189.08698 c -0.32044,-0.14684 -0.55417,-0.3479 -0.66067,-0.56835 -0.11647,-0.24107 -0.0796,-0.48673 0.10784,-0.71932 0.0385,-0.0478 0.12112,-0.12906 0.17499,-0.17216 0.27938,-0.22357 0.69469,-0.38511 1.16183,-0.45191 0.19183,-0.0274 0.29579,-0.0344 0.51322,-0.0344 0.21682,0 0.32174,0.007 0.51121,0.0341 0.0825,0.0118 0.24783,0.0425 0.25723,0.0478 0.003,0.002 -0.36472,0.35293 -0.99333,0.94837 -0.54905,0.52009 -0.99947,0.946 -1.00094,0.94648 -0.002,4.8e-4 -0.0336,-0.0133 -0.0714,-0.0306 z"
       id="path3057" />
  </g>
</svg>
